<svg id="Calque_1" xmlns="http://www.w3.org/2000/svg" viewBox="0 0 464.6 404.9"><style>.st0{fill:#ff7f3f}.st1{fill:#7b303e}.st2{fill:#fedd3d}.st3{fill:#c6093b}.st4{fill:#e63c2f}</style><g id="openclassrooms"><path class="st0" d="M56.9 105.5c-2.9.7-5.8 1.5-8.7 2.4l3.7 2.7 5-5.1z"/><path class="st1" d="M98.8 77.7c-6.6 2.2-10.1 3.8-10.9 4.2l9.5 3 1.4-7.2z"/><path class="st2" d="M166.2 148.3v-6.4h-20.5v6c2.9-.8 6.1-1.2 9.4-1.2 4-.1 7.7.5 11.1 1.6"/><path class="st1" d="M104.4 105.1l-15.3-5.3-10.1 9.8 6.2 14.7z"/><path class="st3" d="M73.8 82.9l-1-15.7c-7.4 4.4-14.1 9.7-20 15.6l1 5.4 20-5.3z"/><path class="st1" d="M36.6 108l-2.9-15.4-6.2-1c-5.2 3.2-8.4 4.4-12.7 8.6l-1.1 5.1 22.9 2.7z"/><path class="st0" d="M211 184.8v-20.5h-20.5v14.4c.3 2 .5 4.1.5 6.2h20z"/><path class="st4" d="M190.4 141.8h20.5v20.5h-20.5z"/><path class="st3" d="M212.8 141.8h20.5v20.5h-20.5z"/><path class="st1" d="M211 117.6V113c-6.3-4.4-13.1-8-20.5-10.7v15.3H211z"/><path class="st2" d="M212.8 164.2h20.5v20.5h-20.5z"/><path class="st4" d="M217 117.6l-4.2-3.3v3.3h4.2z"/><path class="st0" d="M190.4 119.5h20.5V140h-20.5z"/><path class="st1" d="M212.8 119.5V140h20.5v-4.5c-4-5.9-8.8-11.3-14.2-16h-6.3zm-89.5 44.7v3.4c.5-1.2 1.1-2.3 1.7-3.4h-1.7z"/><path class="st3" d="M144.2 149.5l.7-6.5-20.4-2.2-2.2 20.4 2.8.3c4.8-6 11.3-10.3 19.1-12"/><path class="st1" d="M188.6 164.2h-3.1c1.2 2.2 2.3 4.5 3.1 6.9v-6.9z"/><path class="st0" d="M184.4 162.4h4.2v-20.5H168v7.1c6.9 2.6 12.5 7.4 16.4 13.4"/><path class="st4" d="M125.1 93.9l3.7-20.2-1.8-.3c-6.5-.3-12.9 0-19.2.9l-2.9 15.9 20.2 3.7z"/><path transform="rotate(-82.478 155.502 104.775)" class="st0" d="M145.2 94.5h20.5V115h-20.5z"/><path transform="rotate(-14.28 121.494 121.335)" class="st2" d="M111.2 111h20.5v20.5h-20.5z"/><path class="st1" d="M160.7 140h.9v-20.5h-20.5V140h3z"/><path class="st3" d="M168 117.7h20.5v-16c-6.1-2.1-12.5-3.7-19.1-4.6H168v20.6z"/><path class="st2" d="M168 119.5h20.5V140H168z"/><path class="st1" d="M235.1 184.8h13.2v-.2c0-7-.8-13.8-2.4-20.3h-10.8v20.5z"/><path class="st4" d="M278 164.2h-15.7c-1.5 6.5-2.3 13.4-2.3 20.5h18v-20.5z"/><path class="st1" d="M235.1 140.4h1.2l-1.2-2.1v2.1z"/><path class="st4" d="M235.1 162.4h10.4c-1.9-7.3-4.7-14.2-8.3-20.5h-2.1v20.5z"/><path class="st1" d="M278 137.2v-6.4c-2.3 3-4.4 6.2-6.4 9.6h6.4v-3.2z"/><path class="st0" d="M278 141.8h-7.2c-3.5 6.4-6.2 13.2-8 20.5H278v-20.5zm44.8-24.2v-17.4c-7.3 2.2-14.2 5.3-20.5 9.1v8.4h20.5z"/><path class="st2" d="M279.9 141.8h20.5v20.5h-20.5z"/><path class="st4" d="M302.2 141.8h20.5v20.5h-20.5z"/><path class="st0" d="M324.6 141.8v19.3c4.7-7.2 11.8-12.2 20.5-13.5v-5.8h-20.5zm22.3-22.3h20.5V140h-20.5z"/><path class="st1" d="M367.5 97.1h-2.8c.9.1 1.9.3 2.8.4v-.4z"/><path class="st4" d="M346.9 117.6h20.5V97.5c-.9-.2-1.9-.3-2.8-.4h-17.7v20.5z"/><path class="st0" d="M389.9 117.6v-13.3c-6.3-2.9-13.1-5.1-20.5-6.5v19.8h20.5z"/><path class="st2" d="M369.3 119.5h20.5V140h-20.5z"/><path class="st3" d="M300.4 140v-20.5h-12c-3.1 2.8-5.9 5.8-8.6 9V140h20.6z"/><path class="st1" d="M300.4 110.4c-3.5 2.2-6.8 4.6-9.9 7.3h9.9v-7.3z"/><path class="st3" d="M324.6 119.5h20.5V140h-20.5z"/><path class="st1" d="M345.1 117.6V97.1h-8c-4.3.6-8.5 1.5-12.6 2.6v17.9h20.6zm-42.9 1.9h20.5V140h-20.5z"/><path class="st0" d="M427.5 140c-3.8-6.7-8.2-12.9-13.5-18.4V140h13.5z"/><path class="st3" d="M409.9 117.6c-5.4-4.9-11.5-9.1-18.3-12.5v12.5h18.3z"/><path class="st1" d="M412.2 119.5h-.3l.3.3v-.3z"/><path class="st4" d="M391.7 140h20.5v-20.2l-.3-.3h-20.2V140z"/><path class="st1" d="M123.3 253.6v15.2c6.5 2.2 13.4 3.7 20.5 4.5v-19.7h-20.5z"/><path class="st3" d="M145.7 253.6v19.9c3.1.3 6.2.4 9.4.4 3.8 0 7.5-.2 11.1-.6v-19.7h-20.5z"/><path class="st1" d="M168 253.6v19.5c7.2-.9 14-2.6 20.5-4.9v-14.6H168z"/><path class="st0" d="M127.2 208.9h-3.8v20.5h20.5v-7.9c-7-2.3-12.6-6.8-16.7-12.6"/><path class="st4" d="M145.7 222.2v7.3h20.5V222c-3.3 1-6.8 1.6-10.6 1.6-3.5-.1-6.8-.6-9.9-1.4m-22.4 9h20.5v20.5h-20.5z"/><path class="st2" d="M151.8 231.2h-6.1v20.6h20.5v-20.6h-3.1z"/><path class="st0" d="M291.1 253.6c2.9 2.4 6 4.7 9.3 6.7v-6.7h-9.3zM168 221.3v8.2h20.5V209h-4.8c-3.8 5.5-9.1 9.8-15.7 12.3"/><path class="st3" d="M168 231.2h20.5v20.5H168z"/><path class="st0" d="M190.4 253.6v13.9c7.4-2.8 14.3-6.5 20.5-10.9v-3h-20.5z"/><path class="st1" d="M212.8 255.3c.8-.6 1.5-1.1 2.2-1.7h-2.2v1.7z"/><path class="st3" d="M212.8 208.9h20.5v20.9h-20.5zm-22.4-1.8H211v-20.5h-20.1c0 1.8-.2 3.6-.5 5.4v15.1z"/><path class="st4" d="M212.8 186.5h20.5V207h-20.5z"/><path class="st1" d="M190.4 231.2h20.5v20.5h-20.5z"/><path class="st0" d="M212.8 231.2v20.5h4.4c6.2-5.2 11.6-11.2 16.1-17.8v-2.7h-20.5zm65.2-44.7h-18c.1 7.2.9 14 2.4 20.5H278v-20.5z"/><path class="st2" d="M190.4 208.9h20.5v20.5h-20.5z"/><path class="st1" d="M278 208.9h-15.1c1.9 7.4 4.6 14.2 8.1 20.5h7v-20.5z"/><path class="st0" d="M235.1 207.1h10.4c1.7-6.6 2.6-13.5 2.8-20.5h-13.2v20.5z"/><path class="st1" d="M235.1 212v17.8h.9c3.9-6.5 6.9-13.5 9-20.9h-9.9v3.1z"/><path class="st0" d="M272.1 231.2c1.8 3.1 3.8 6.1 6 8.9v-8.9h-6z"/><path class="st1" d="M302.2 253.6v7.8c6.4 3.8 13.3 6.8 20.5 8.9v-16.7h-20.5z"/><path class="st0" d="M324.6 253.6v17.2c6.6 1.8 13.5 2.8 20.5 3.1v-20.2l-20.5-.1z"/><path class="st4" d="M300.4 231.2h-20.5v11.1c2.8 3.4 5.9 6.5 9.1 9.4h11.4v-20.5z"/><path class="st3" d="M279.9 208.9h20.5v20.5h-20.5z"/><path class="st2" d="M302.2 208.9h20.5v20.5h-20.5z"/><path class="st1" d="M369.3 253.6V272c7.6-1.4 14.4-3.7 20.5-6.5v-11.9h-20.5z"/><path class="st4" d="M324.6 231.2h20.5v20.5h-20.5z"/><path class="st1" d="M345.1 229.5v-7c-8.6-1.3-15.8-6.1-20.5-13.3v20.3h20.5z"/><path class="st3" d="M279.9 164.2h20.5v20.5h-20.5z"/><path class="st0" d="M302.2 231.2h20.5v20.5h-20.5z"/><path class="st2" d="M302.2 164.2v20.5H318v-.2c0-7.5 1.7-14.5 4.8-20.3h-20.6z"/><path class="st1" d="M279.9 186.5h20.5V207h-20.5z"/><path class="st0" d="M302.2 186.5V207h20.5v-1c-2.9-5.5-4.6-12.1-4.8-19.5h-15.7z"/><path class="st4" d="M428.1 229.5c.3-.5.6-1 .9-1.6l-15-8.4v10h14.1z"/><path class="st1" d="M414 248.2c5-5.2 9.3-10.9 13-17h-13v17zM50.5 215.1l-6.3 9.3c7.2 2.4 14.5 3.9 21.9 4.4l1.5-2.2-17.1-11.5z"/><path class="st0" d="M44.5 237.8c2.4 1.6 4.9 3.1 7.4 4.6l-1.7-4.5-5.7-.1z"/><path class="st1" d="M78.9 229.7l-17.5 10.7 2.6 4.3c6.5 2.7 13.3 4.7 20.4 5.8l5.3-3.2-10.8-17.6z"/><path class="st2" d="M71.6 212.6l17.5-7.5v-13.9l-16.7-1.4z"/><path class="st1" d="M95.2 253.6c1.3 1 2.6 2 4 3v-3h-4zm-7.4-26l20.4 2.3 2.2-20.6-20.4-2.2z"/><path class="st0" d="M98.7 234.3v17.5h20.6v-20.6H98.7z"/><path class="st4" d="M101 253.6v4.2c6.3 4.2 13.2 7.7 20.5 10.3v-14.6H101z"/><path class="st3" d="M16 193.9l-3.8 13.3c6.6 1.4 13.2 2 19.8 1.8l3.1-10.8-19.1-4.3z"/><path class="st4" d="M27.4 166l-8.7 7.5c3.1 5.7 5.1 9.6 9.7 14.6l10.5-9L27.4 166z"/><path class="st1" d="M48.1 157.7l20.4 2.1 2.2-20.3-20.5-2.2z"/><path class="st0" d="M100.8 186.7l.3 20.4 20.5-.4-.2-10c-1-3.3-1.6-6.8-1.8-10.4l-18.8.4z"/><path class="st1" d="M122.6 170.1l-1.1-8.4-20.4 2.6 2.6 20.4 18.7-2.4v-.2c-.5-4-.4-8.1.2-12"/><path transform="rotate(-5.756 67.012 188.043)" class="st0" d="M56.8 177.8h20.5v20.5H56.8z"/><path class="st0" d="M7.2 133.9l-2.7.8C.7 139.7-.4 143 .2 150l17.1-4-10.1-12.1zm35.7-11.4l-5.6-1.2-6.6 13.5 24.1 5.6 1.2-15.2-2.9-.6z"/><path transform="rotate(-5.401 100.799 145.224) scale(1.00004)" class="st4" d="M90.5 134.9H111v20.5H90.5z"/><path class="st3" d="M346.9 253.6v20.3h1.5c6.8 0 13.2-.5 19.1-1.5v-18.7h-20.6zm44.8 11c6.2-3.1 11.7-6.8 16.7-11h-16.7v11z"/><path class="st4" d="M188.6 207.1v-7.7c-.9 2.7-2.1 5.3-3.6 7.7h3.6z"/><path class="st1" d="M123.3 207.1h2.6c-1-1.6-1.9-3.3-2.6-5v5z"/><path class="st4" d="M367.5 229.5v-11.4c-4.8 3-10.5 4.7-17.6 4.7-1 0-2-.1-2.9-.1v6.8h20.5z"/><path class="st3" d="M389.9 229.5V209h-12.7c-2.3 3.1-4.9 5.8-7.8 7.9v12.6h20.5z"/><path class="st2" d="M346.9 231.2h20.5v20.5h-20.5z"/><path class="st0" d="M388.9 251.8h1v-20.6h-20.6v20.6h3zm2.8-22.3h20.5v-11.1l-16.8-9.5h-3.7z"/><path class="st4" d="M391.7 231.2v20.5h18.7l1.8-1.8v-18.8h-20.5z"/><path class="st1" d="M380.8 168l6.5-3.8h-8.6c.7 1.2 1.4 2.5 2.1 3.8m-33.9-26.2v5.6c1-.1 1.9-.1 2.9-.1 7.1 0 12.9 1.8 17.6 4.9v-10.4h-20.5z"/><path class="st3" d="M389.9 141.8h-20.5v11.6c3.1 2.4 5.8 5.4 8.2 8.9H390l-.1-20.5z"/><path class="st1" d="M389.9 205.8l-7.8-4.4c-1.1 2-2.3 3.9-3.6 5.7h11.4v-1.3zm24.1-64v6.7l11.5-6.7z"/><path class="st0" d="M391.7 141.8v19.8l20.5-12v-7.8z"/><path class="st1" d="M391.7 207.1h.5l-.5-.3z"/><path class="st3" d="M42.6 326.4c0 3.3.6 5.6 3.7 5.6 3.7 0 3.7-3.5 3.7-5.6v-10.9c0-2.2 0-4.8-3.6-4.8-3.8 0-3.8 3.6-3.8 4.8v10.9zm-7-9.8c0-3.2.5-6.3 2.7-8.7 2-2.2 4.9-3 7.8-3 3.2 0 6.1.8 8.2 3 1.7 1.9 2.7 4.6 2.7 9.7v7.6c0 4.4-.7 7.2-2.7 9.3-2.6 2.8-6.4 3.1-8.4 3.1-3.1 0-8.1-1.1-9.7-6.4-.7-2.2-.8-4.9-.8-6.3l.2-8.3zm35.9 3.3c3.3 0 4.5 0 5.3-.3.6-.2 2.5-1.2 2.5-4.3 0-3-1.2-3.7-2.1-4.1-1.1-.4-1.6-.4-5.8-.4v9.1zm-6.9-14.4h10.3c4.6 0 7.1 1 8.7 2.5 2 1.8 2.9 4.3 2.9 7.4 0 4.9-2.7 7.2-4.1 8-2.3 1.4-4.7 1.5-7.2 1.6l-3.8.1v11.7h-6.9v-31.3zm28.2 0h21v5.8H99.6v6.6h9.8v5.7h-9.7v7.4h15.1v5.8h-22zm28.8 0h6.6l8.1 14.6c.3.6.8 1.5 1.1 2.1.1.3.6 1.4.7 1.6h.2l-.2-3.2c-.1-2.1-.1-2.4-.1-3.6v-11.6h6.3v31.3h-5.6l-8.3-15.2c-.7-1.2-.7-1.4-2.3-5.2h-.2c0 .9.2 4.9.2 5.7v14.7h-6.3v-31.2z"/><path d="M151.8 316.1c0-7.2 3.8-11.2 11.1-11.2 1.9 0 4.7.4 6.9 2.1 2.8 2.2 3.2 6.1 3.2 8.6h-6.9c0-1.5-.1-4.9-3.5-4.9-.9 0-1.9.3-2.6 1-1.1 1-1.2 2.6-1.2 3.4V327c0 1.7 0 5 3.8 5 2.8 0 3.7-2.3 3.7-5.7h6.9c0 2.3-.1 2.5-.3 3.8-.3 1.2-.7 3.5-3.3 5.6-2.2 1.8-5.5 2.1-6.8 2.1-3.6 0-6.1-.9-8.1-2.8-1.3-1.2-2.9-3-2.9-9.4v-9.5zm28.2-10.6h7V331h13.7v5.8H180zm37 5.6h-.2l-3.4 14.2h7l-3.4-14.2zm4.1-5.6l9 31.3h-6.7l-1.6-6.2h-9.6l-1.6 6.2h-6.7l8.8-31.3h8.4zm28.3 8.4c-1-1.9-3-3.5-5.4-3.5-3.6 0-3.7 2.7-3.7 3 0 2.2 2 3.1 4 3.8l4 1.4c1.9.7 4.1 2 5.3 3.7.4.5 1.7 2.6 1.7 5.5 0 1.4 0 5.6-4.4 8.3-1.8 1.1-4.4 1.6-6 1.6-5.5 0-8.7-1.3-11.6-6.3l5.3-3.5c1.1 2.7 3.2 4.3 5.9 4.3 1.5 0 4.2-.7 4.2-3.5 0-2.3-1.3-2.9-6-4.7-4.7-1.8-8.8-3.9-8.8-10.1 0-5.2 3.8-8.9 10.2-8.9 4.6 0 7.8 1.9 10.4 5.6l-5.1 3.3zm26 0c-1-1.9-3-3.5-5.4-3.5-3.6 0-3.7 2.7-3.7 3 0 2.2 2 3.1 4 3.8l4 1.4c1.9.7 4.1 2 5.3 3.7.4.5 1.7 2.6 1.7 5.5 0 1.4 0 5.6-4.4 8.3-1.8 1.1-4.4 1.6-6 1.6-5.5 0-8.7-1.3-11.6-6.3l5.3-3.5c1.2 2.7 3.2 4.3 5.9 4.3 1.5 0 4.2-.7 4.2-3.5 0-2.3-1.3-2.9-6-4.7-4.7-1.8-8.8-3.9-8.8-10.1 0-5.2 3.8-8.9 10.2-8.9 4.6 0 7.8 1.9 10.4 5.6l-5.1 3.3zm18.4 5.2c3.9 0 4.5 0 5.5-.3 2.2-.8 2.3-2.5 2.3-4.2 0-2.2-.7-3.2-2.1-3.8-1.1-.4-1.9-.4-5.8-.4v8.7zm0 17.7H287v-31.3h10.1c5.1 0 11.5.7 11.5 9.1 0 4-1.6 7-6 8.3l6.8 13.9H302l-5.9-12.8h-2.3v12.8zm26.8-10.4c0 3.3.6 5.6 3.7 5.6 3.7 0 3.7-3.5 3.7-5.6v-10.9c0-2.2 0-4.8-3.6-4.8-3.8 0-3.8 3.6-3.8 4.8v10.9zm-7-9.8c0-3.2.6-6.3 2.7-8.7 2-2.2 4.9-3 7.8-3 3.2 0 6.1.8 8.2 3 1.7 1.9 2.7 4.6 2.7 9.7v7.6c0 4.4-.7 7.2-2.7 9.3-2.6 2.8-6.4 3.1-8.4 3.1-3.1 0-8.1-1.1-9.7-6.4-.7-2.2-.8-4.9-.8-6.3v-8.3zm35.4 9.8c0 3.3.6 5.6 3.7 5.6 3.7 0 3.7-3.5 3.7-5.6v-10.9c0-2.2 0-4.8-3.6-4.8-3.8 0-3.8 3.6-3.8 4.8v10.9zm-7-9.8c0-3.2.6-6.3 2.7-8.7 2-2.2 4.9-3 7.8-3 3.2 0 6.1.8 8.2 3 1.7 1.9 2.7 4.6 2.7 9.7v7.6c0 4.4-.7 7.2-2.7 9.3-2.6 2.8-6.3 3.1-8.4 3.1-3.1 0-8.1-1.1-9.7-6.4-.7-2.2-.8-4.9-.8-6.3v-8.3zm29.2-11.1h9.2l3.7 13.1c.4 1.4.6 1.9.9 3.3.2.6.8 3.4.9 3.9h.2c.5-2.6.9-4.6 1.7-7.3l3.7-12.9h9.3v31.3h-6V320c0-2.2.2-5.9.3-8.9h-.2l-6.5 25.8h-4.7l-6.7-25.8h-.2c0 1.5.3 7.8.3 9.1v16.6h-5.9v-31.3zm51.9 8.4c-1-1.9-3-3.5-5.4-3.5-3.6 0-3.7 2.7-3.7 3 0 2.2 2.1 3.1 4 3.8l4 1.4c1.9.7 4.1 2 5.3 3.7.4.5 1.7 2.6 1.7 5.5 0 1.4 0 5.6-4.4 8.3-1.8 1.1-4.4 1.6-6 1.6-5.5 0-8.7-1.3-11.6-6.3l5.3-3.5c1.2 2.7 3.2 4.3 5.9 4.3 1.5 0 4.2-.7 4.2-3.5 0-2.3-1.3-2.9-6-4.7-4.7-1.8-8.8-3.9-8.8-10.1 0-5.2 3.8-8.9 10.2-8.9 4.6 0 7.8 1.9 10.4 5.6l-5.1 3.3z"/></g></svg>